<?xml version="1.0" encoding="UTF-8" standalone="no"?>
<svg
   xmlns:osb="http://www.openswatchbook.org/uri/2009/osb"
   xmlns:dc="http://purl.org/dc/elements/1.1/"
   xmlns:cc="http://creativecommons.org/ns#"
   xmlns:rdf="http://www.w3.org/1999/02/22-rdf-syntax-ns#"
   xmlns:svg="http://www.w3.org/2000/svg"
   xmlns="http://www.w3.org/2000/svg"
   id="svg8"
   version="1.1"
   viewBox="0 0 270.93333 270.93334"
   height="1024"
   width="1024">
  <defs
     id="defs2">
    <linearGradient
       id="linearGradient5628"
       osb:paint="gradient">
      <stop
         id="stop5630"
         offset="0"
         style="stop-color:#787878;stop-opacity:1;" />
      <stop
         id="stop5632"
         offset="1"
         style="stop-color:#787878;stop-opacity:0;" />
    </linearGradient>
    <linearGradient
       osb:paint="solid"
       id="linearGradient5234">
      <stop
         id="stop5236"
         offset="0"
         style="stop-color:#000000;stop-opacity:1;" />
    </linearGradient>
  </defs>
  <metadata
     id="metadata5">
    <rdf:RDF>
      <cc:Work
         rdf:about="">
        <dc:format>image/svg+xml</dc:format>
        <dc:type
           rdf:resource="http://purl.org/dc/dcmitype/StillImage" />
        <dc:title></dc:title>
      </cc:Work>
    </rdf:RDF>
  </metadata>
  <g
     id="layer2">
    <rect
       y="2.3307405"
       x="2.3307393"
       height="266.27185"
       width="266.27188"
       id="rect854"
       style="opacity:1;fill:#000000;fill-opacity:1;stroke:#000000;stroke-width:4.66147518;stroke-miterlimit:4;stroke-dasharray:none;stroke-opacity:1" />
  </g>
  <g
     transform="translate(0,-26.06665)"
     id="layer1">
    <g
       style="display:inline"
       id="layer3"
       transform="matrix(0.63807853,0,0,0.63807853,-4.0494608,39.309491)">
      <g
         aria-label="Ramastons"
         style="font-style:normal;font-weight:normal;line-height:0%;font-family:sans-serif;letter-spacing:0px;word-spacing:0px;fill:#000000;fill-opacity:1;stroke:none"
         id="text3792">
        <path
           d="M 53.068148,195.02882 H 34.574495 v 22.81495 h -1.977539 v -53.32032 h 16.992188 q 8.020019,0 12.74414,4.13819 4.760743,4.13818 4.760743,11.24267 0,5.45655 -3.405762,9.55811 -3.369141,4.06494 -8.605957,5.05371 l 14.245605,22.81494 v 0.5127 h -2.087402 z m -18.493653,-1.97754 h 16.809082 q 6.152344,0 9.924317,-3.73535 3.808594,-3.73535 3.808594,-9.41162 0,-6.22558 -4.211426,-9.81445 -4.174805,-3.58887 -11.462403,-3.58887 H 34.574495 Z"
           style="font-style:normal;font-variant:normal;font-weight:200;font-stretch:normal;font-family:Roboto;-inkscape-font-specification:'Roboto Light';fill:#ffffff"
           id="path832" />
        <path
           d="m 106.42508,217.84377 q -0.73242,-2.52686 -0.73242,-7.25098 -2.34375,3.80859 -6.408692,5.89599 -4.064941,2.08741 -9.191895,2.08741 -5.493164,0 -8.862304,-2.96631 -3.33252,-3.00293 -3.33252,-7.80029 0,-5.45655 4.907227,-8.71582 4.943847,-3.2959 13.110351,-3.36915 h 9.777833 v -5.78613 q 0,-4.98047 -3.14941,-7.72705 -3.112798,-2.74658 -8.935552,-2.74658 -5.419921,0 -9.04541,2.7832 -3.625488,2.78321 -3.625488,6.88477 l -1.977539,-0.0732 q 0,-4.83399 4.248047,-8.20313 4.248047,-3.36914 10.40039,-3.36914 6.408692,0 10.180662,3.22266 3.77198,3.18603 3.88184,9.00879 v 18.9331 q 0,6.51856 1.02539,8.86231 v 0.32959 z m -16.333007,-1.2085 q 5.566407,0 9.558106,-2.49024 4.028321,-2.49023 6.042481,-6.99462 v -9.41163 h -9.155274 q -8.496094,0 -13.000488,3.36915 -3.66211,2.74658 -3.66211,6.84814 0,3.62549 2.893067,6.15234 2.893066,2.52686 7.324218,2.52686 z"
           style="font-style:normal;font-variant:normal;font-weight:200;font-stretch:normal;font-family:Roboto;-inkscape-font-specification:'Roboto Light';fill:#ffffff"
           id="path834" />
        <path
           d="m 148.72244,217.84377 h -1.97753 v -26.62354 q -0.0366,-5.96924 -2.63672,-8.8623 -2.56348,-2.92969 -8.20313,-2.92969 -6.51855,0 -10.65674,5.74951 -2.45361,3.44238 -3.25927,7.61719 v 25.04883 h -2.01416 v -39.62403 h 2.01416 v 9.375 q 2.01416,-4.83398 5.74951,-7.4707 3.73535,-2.63672 8.27637,-2.63672 4.98046,0 8.12988,2.19727 3.18603,2.19726 4.1748,7.17773 1.75782,-4.28467 5.71289,-6.81152 3.95508,-2.56348 8.86231,-2.56348 6.40869,0 9.52148,3.62549 3.14942,3.62549 3.18604,10.87646 v 25.8545 h -1.97754 v -25.70801 q 0,-6.51856 -2.63672,-9.63135 -2.6001,-3.14941 -8.20313,-3.07617 -7.21435,0.10986 -11.42578,5.74951 -2.41699,3.25928 -2.63672,6.29883 z"
           style="font-style:normal;font-variant:normal;font-weight:200;font-stretch:normal;font-family:Roboto;-inkscape-font-specification:'Roboto Light';fill:#ffffff"
           id="path836" />
        <path
           d="m 213.21219,217.84377 q -0.73242,-2.52686 -0.73242,-7.25098 -2.34375,3.80859 -6.40869,5.89599 -4.06494,2.08741 -9.1919,2.08741 -5.49316,0 -8.8623,-2.96631 -3.33252,-3.00293 -3.33252,-7.80029 0,-5.45655 4.90723,-8.71582 4.94384,-3.2959 13.11035,-3.36915 h 9.77783 v -5.78613 q 0,-4.98047 -3.14942,-7.72705 -3.11279,-2.74658 -8.93554,-2.74658 -5.41992,0 -9.04541,2.7832 -3.62549,2.78321 -3.62549,6.88477 l -1.97754,-0.0732 q 0,-4.83399 4.24805,-8.20313 4.24804,-3.36914 10.40039,-3.36914 6.40869,0 10.18066,3.22266 3.77197,3.18603 3.88184,9.00879 v 18.9331 q 0,6.51856 1.02539,8.86231 v 0.32959 z m -16.33301,-1.2085 q 5.56641,0 9.55811,-2.49024 4.02832,-2.49023 6.04248,-6.99462 v -9.41163 h -9.15527 q -8.4961,0 -13.00049,3.36915 -3.66211,2.74658 -3.66211,6.84814 0,3.62549 2.89306,6.15234 2.89307,2.52686 7.32422,2.52686 z"
           style="font-style:normal;font-variant:normal;font-weight:200;font-stretch:normal;font-family:Roboto;-inkscape-font-specification:'Roboto Light';fill:#ffffff"
           id="path838" />
        <path
           d="m 245.07254,206.71095 q 0,-1.5747 -1.64795,-2.52685 -1.64795,-0.95215 -6.2622,-1.97754 -4.61426,-1.02539 -7.61719,-2.67334 -3.00293,-1.68457 -4.57764,-4.06494 -1.57471,-2.38037 -1.57471,-5.45655 0,-5.45654 4.5044,-8.97216 4.50439,-3.55225 11.79199,-3.55225 7.83692,0 12.59766,3.55225 4.76074,3.55224 4.76074,9.33837 h -12.37793 q 0,-4.76074 -5.01709,-4.76074 -1.94092,0 -3.25928,1.09864 -1.31836,1.06201 -1.31836,2.67334 0,1.64794 1.61133,2.67334 1.61133,1.02539 5.12695,1.68457 3.55225,0.65918 6.22559,1.5747 8.93555,3.07617 8.93555,11.02295 0,5.41992 -4.83399,8.82569 -4.79736,3.40576 -12.45117,3.40576 -5.09033,0 -9.08203,-1.83106 -3.9917,-1.83105 -6.22559,-4.98047 -2.23388,-3.14941 -2.23388,-6.62841 h 11.53564 q 0.0732,2.74658 1.83106,4.02832 1.75781,1.24511 4.50439,1.24511 2.52686,0 3.77197,-1.02539 1.28174,-1.02539 1.28174,-2.67334 z"
           style="font-style:normal;font-variant:normal;font-weight:900;font-stretch:normal;font-size:75px;font-family:Roboto;-inkscape-font-specification:'Roboto Heavy';fill:#850505;fill-opacity:1"
           id="path840" />
        <path
           d="m 277.07938,168.36867 v 9.85107 h 6.51855 v 8.56934 h -6.51855 v 18.12744 q 0,2.23389 0.80566,3.11279 0.80567,0.87891 3.18604,0.87891 1.83105,0 3.07617,-0.21973 v 8.82569 q -3.33252,1.06201 -6.95801,1.06201 -6.37207,0 -9.41162,-3.00293 -3.03955,-3.00293 -3.03955,-9.11865 v -19.66553 h -5.05371 v -8.56934 h 5.05371 v -9.85107 z"
           style="font-style:normal;font-variant:normal;font-weight:900;font-stretch:normal;font-size:75px;font-family:Roboto;-inkscape-font-specification:'Roboto Heavy';fill:#850505;fill-opacity:1"
           id="path842" />
        <path
           d="m 285.90506,197.66554 q 0,-5.93261 2.30713,-10.54687 2.30713,-4.65088 6.62842,-7.14112 4.32129,-2.49023 10.14404,-2.49023 8.89893,0 14.02588,5.52979 5.12695,5.49316 5.12695,14.97802 v 0.43946 q 0,9.26513 -5.16357,14.72168 -5.12695,5.41992 -13.91602,5.41992 -8.45947,0 -13.58642,-5.05371 -5.12696,-5.09034 -5.52979,-13.76954 z m 12.34131,0.76905 q 0,5.49316 1.72119,8.05664 1.72119,2.56347 5.09033,2.56347 6.5918,0 6.73829,-10.14404 v -1.24512 q 0,-10.65674 -6.81153,-10.65674 -6.18896,0 -6.70166,9.1919 z"
           style="font-style:normal;font-variant:normal;font-weight:900;font-stretch:normal;font-size:75px;font-family:Roboto;-inkscape-font-specification:'Roboto Heavy';fill:#850505;fill-opacity:1"
           id="path844" />
        <path
           d="m 340.98319,178.21974 0.40283,4.65088 q 4.10156,-5.3833 11.31592,-5.3833 6.18896,0 9.22851,3.69873 3.07617,3.69873 3.18604,11.13281 v 25.52491 h -12.37793 v -25.01221 q 0,-3.00293 -1.2085,-4.39453 -1.20849,-1.42823 -4.39453,-1.42823 -3.62549,0 -5.3833,2.85645 v 27.97852 h -12.34131 v -39.62403 z"
           style="font-style:normal;font-variant:normal;font-weight:900;font-stretch:normal;font-size:75px;font-family:Roboto;-inkscape-font-specification:'Roboto Heavy';fill:#850505;fill-opacity:1"
           id="path846" />
        <path
           d="m 392.72879,206.71095 q 0,-1.5747 -1.64795,-2.52685 -1.64795,-0.95215 -6.2622,-1.97754 -4.61426,-1.02539 -7.61719,-2.67334 -3.00293,-1.68457 -4.57764,-4.06494 -1.57471,-2.38037 -1.57471,-5.45655 0,-5.45654 4.5044,-8.97216 4.50439,-3.55225 11.79199,-3.55225 7.83692,0 12.59766,3.55225 4.76074,3.55224 4.76074,9.33837 h -12.37793 q 0,-4.76074 -5.01709,-4.76074 -1.94092,0 -3.25928,1.09864 -1.31836,1.06201 -1.31836,2.67334 0,1.64794 1.61133,2.67334 1.61133,1.02539 5.12695,1.68457 3.55225,0.65918 6.22559,1.5747 8.93555,3.07617 8.93555,11.02295 0,5.41992 -4.83399,8.82569 -4.79736,3.40576 -12.45117,3.40576 -5.09033,0 -9.08203,-1.83106 -3.9917,-1.83105 -6.22559,-4.98047 -2.23388,-3.14941 -2.23388,-6.62841 h 11.53564 q 0.0732,2.74658 1.83106,4.02832 1.75781,1.24511 4.50439,1.24511 2.52686,0 3.77197,-1.02539 1.28174,-1.02539 1.28174,-2.67334 z"
           style="font-style:normal;font-variant:normal;font-weight:900;font-stretch:normal;font-size:75px;font-family:Roboto;-inkscape-font-specification:'Roboto Heavy';fill:#850505;fill-opacity:1"
           id="path848" />
      </g>
    </g>
  </g>
</svg>
